<svg width="40" height="40" viewBox="0 0 40 40" fill="none" xmlns="http://www.w3.org/2000/svg">
    <path fill-rule="evenodd" clip-rule="evenodd"
        d="M27.0711 29.4281L20 22.357L12.9289 29.4281C12.2772 30.0798 11.2225 30.0786 10.5719 29.4281C9.92138 28.7776 9.9202 27.7228 10.5719 27.0711L17.643 20L10.5719 12.9289C9.92138 12.2784 9.9202 11.2236 10.5719 10.5719C11.2236 9.9202 12.2784 9.92137 12.9289 10.5719L20 17.643L27.0711 10.5719C27.7228 9.9202 28.7776 9.92137 29.4281 10.5719C30.0786 11.2224 30.0798 12.2772 29.4281 12.9289L22.357 20L29.4281 27.0711C30.0786 27.7216 30.0798 28.7764 29.4281 29.4281C28.7764 30.0798 27.7216 30.0786 27.0711 29.4281Z"
        fill="url(#paint0_linear_776_4330)" />
    <mask id="mask0_776_4330" style="mask-type:luminance" maskUnits="userSpaceOnUse" x="10" y="10" width="20"
        height="20">
        <path fill-rule="evenodd" clip-rule="evenodd"
            d="M27.0711 29.4281L20 22.357L12.9289 29.4281C12.2772 30.0798 11.2225 30.0786 10.5719 29.4281C9.92138 28.7776 9.9202 27.7228 10.5719 27.0711L17.643 20L10.5719 12.9289C9.92138 12.2784 9.9202 11.2236 10.5719 10.5719C11.2236 9.9202 12.2784 9.92137 12.9289 10.5719L20 17.643L27.0711 10.5719C27.7228 9.9202 28.7776 9.92137 29.4281 10.5719C30.0786 11.2224 30.0798 12.2772 29.4281 12.9289L22.357 20L29.4281 27.0711C30.0786 27.7216 30.0798 28.7764 29.4281 29.4281C28.7764 30.0798 27.7216 30.0786 27.0711 29.4281Z"
            fill="white" />
    </mask>
    <g mask="url(#mask0_776_4330)">
    </g>
    <defs>
        <linearGradient id="paint0_linear_776_4330" x1="4.75793" y1="16.3859" x2="33.4933" y2="27.7839"
            gradientUnits="userSpaceOnUse">
            <stop stop-color="#776DDF" />
            <stop offset="0.510417" stop-color="#6FECE3" />
            <stop offset="1" stop-color="#A0FAAC" />
        </linearGradient>
    </defs>
</svg>