<svg width="28" height="28" viewBox="0 0 28 28" fill="none" xmlns="http://www.w3.org/2000/svg">
<rect width="28" height="28" rx="8" fill="url(#paint0_linear_1409_8760)"/>
<path fill-rule="evenodd" clip-rule="evenodd" d="M10.6563 8.80639C10.2897 9.06598 9.95312 9.36662 9.64807 9.70687C7.55894 12.0321 7.62714 15.7528 9.79986 18.0003C10.9482 19.189 12.491 19.8519 14.1438 19.8658C14.1622 19.8665 14.1812 19.8665 14.2003 19.8665C15.8319 19.8665 17.3637 19.2337 18.5193 18.0802C18.7599 17.8405 18.9784 17.5831 19.1742 17.3088C16.8673 17.5963 14.5024 16.8234 12.8225 15.1471C11.1432 13.4708 10.366 11.1111 10.6563 8.80639ZM14.2002 21.3331C14.1768 21.3331 14.154 21.3331 14.1306 21.3324C12.0818 21.3148 10.1686 20.4935 8.74532 19.0203C6.04903 16.2302 5.9647 11.6127 8.55613 8.72719C9.36348 7.82745 10.349 7.15063 11.4849 6.71579C11.7525 6.61166 12.0568 6.67619 12.2614 6.87858C12.466 7.08023 12.5342 7.38308 12.4352 7.65293C11.6154 9.89311 12.1742 12.4273 13.8585 14.1088C15.5436 15.7902 18.0844 16.3482 20.3319 15.5299C20.6018 15.4301 20.9054 15.5005 21.1063 15.7044C21.3072 15.9104 21.371 16.214 21.2676 16.4817C20.8834 17.4811 20.307 18.3684 19.5547 19.1186C18.1226 20.5485 16.2234 21.3331 14.2002 21.3331Z" fill="white"/>
<defs>
<linearGradient id="paint0_linear_1409_8760" x1="1.07852e-07" y1="5.36667" x2="29.7975" y2="18.239" gradientUnits="userSpaceOnUse">
<stop stop-color="#776DDF"/>
<stop offset="0.510417" stop-color="#6FECE3"/>
<stop offset="1" stop-color="#A0FAAC"/>
</linearGradient>
</defs>
</svg>
