<svg width="96" height="32" viewBox="0 0 96 32" fill="none" xmlns="http://www.w3.org/2000/svg">
    <path
        d="M41.2489 13.6172C43.5944 13.6172 44.6688 12.4642 44.6688 11.1147C44.6688 7.7737 39.0217 9.2935 39.0217 6.77793C39.0217 5.8608 39.7685 5.11401 41.4454 5.11401C42.2577 5.11401 43.1751 5.36291 43.9611 5.87389L44.2885 5.10088C43.555 4.58991 42.4805 4.28857 41.4454 4.28857C39.1134 4.28857 38.0653 5.45465 38.0653 6.80414C38.0653 10.1975 43.7121 8.65153 43.7121 11.1671C43.7121 12.0711 42.9654 12.7917 41.2489 12.7917C40.0437 12.7917 38.8776 12.3201 38.2225 11.6781L37.8425 12.4249C38.5238 13.1324 39.8733 13.6172 41.2489 13.6172Z"
        fill="currentColor" />
    <path
        d="M50.7901 13.6172C53.5417 13.6172 55.5987 11.6388 55.5987 8.95286C55.5987 6.26695 53.5417 4.28857 50.7901 4.28857C48.0126 4.28857 45.9688 6.28008 45.9688 8.95286C45.9688 11.6256 48.0126 13.6172 50.7901 13.6172ZM50.7901 12.7524C48.5759 12.7524 46.9251 11.1409 46.9251 8.95286C46.9251 6.76484 48.5759 5.15331 50.7901 5.15331C52.9911 5.15331 54.6289 6.76484 54.6289 8.95286C54.6289 11.1409 52.9911 12.7524 50.7901 12.7524Z"
        fill="currentColor" />
    <path
        d="M61.7545 13.6172C63.1043 13.6172 64.3096 13.1586 65.1219 12.2677L64.5061 11.6519C63.7595 12.4249 62.8421 12.7524 61.7939 12.7524C59.5798 12.7524 57.9158 11.1278 57.9158 8.95286C57.9158 6.77793 59.5798 5.15331 61.7939 5.15331C62.8421 5.15331 63.7595 5.48086 64.5061 6.24074L65.1219 5.62498C64.3096 4.73403 63.1043 4.28857 61.7677 4.28857C59.0034 4.28857 56.9595 6.26695 56.9595 8.95286C56.9595 11.6388 59.0034 13.6172 61.7545 13.6172Z"
        fill="currentColor" />
    <path d="M67.189 13.5385H68.1584V4.36719H67.189V13.5385Z" fill="currentColor" />
    <path
        d="M77.9946 13.5385H79.0166L74.8242 4.36719H73.8675L69.675 13.5385H70.6839L71.7846 11.0885H76.8943L77.9946 13.5385ZM72.1382 10.3024L74.3393 5.37605L76.5403 10.3024H72.1382Z"
        fill="currentColor" />
    <path d="M80.5337 13.5385H86.6395V12.7H81.5035V4.36719H80.5337V13.5385Z" fill="currentColor" />
    <path d="M40.2139 27.8974H42.3364V20.4556H45.2714V18.7261H37.2791V20.4556H40.2139V27.8974Z" fill="currentColor" />
    <path
        d="M54.5366 27.8974L52.4795 24.9495C53.6718 24.4385 54.3659 23.4297 54.3659 22.054C54.3659 19.997 52.8332 18.7261 50.3831 18.7261H46.4131V27.8974H48.5358V25.3426H50.3831H50.4878L52.2568 27.8974H54.5366ZM52.2174 22.054C52.2174 23.0497 51.5622 23.6524 50.265 23.6524H48.5358V20.4556H50.265C51.5622 20.4556 52.2174 21.0451 52.2174 22.054Z"
        fill="currentColor" />
    <path
        d="M62.9001 27.8974H65.1274L61.0265 18.7261H58.9301L54.8423 27.8974H57.0175L57.8298 25.9321H62.0878L62.9001 27.8974ZM58.5108 24.3206L59.9652 20.8093L61.4195 24.3206H58.5108Z"
        fill="currentColor" />
    <path
        d="M66.0789 27.8974H70.2454C73.2456 27.8974 75.3027 26.0894 75.3027 23.3118C75.3027 20.5342 73.2456 18.7261 70.2454 18.7261H66.0789V27.8974ZM68.2015 26.1549V20.4686H70.1408C71.9619 20.4686 73.1541 21.5561 73.1541 23.3118C73.1541 25.0674 71.9619 26.1549 70.1408 26.1549H68.2015Z"
        fill="currentColor" />
    <path
        d="M79.0129 26.1942V24.0717H83.2709V22.4208H79.0129V20.4293H83.8342V18.7261H76.9033V27.8974H84.0045V26.1942H79.0129Z"
        fill="currentColor" />
    <path
        d="M93.8167 27.8974L91.7597 24.9495C92.9519 24.4385 93.6464 23.4297 93.6464 22.054C93.6464 19.997 92.1137 18.7261 89.6636 18.7261H85.6936V27.8974H87.8163V25.3426H89.6636H89.7683L91.5369 27.8974H93.8167ZM91.4979 22.054C91.4979 23.0497 90.8427 23.6524 89.5455 23.6524H87.8163V20.4556H89.5455C90.8427 20.4556 91.4979 21.0451 91.4979 22.054Z"
        fill="currentColor" />
    <path d="M21.9956 29.6463L31.9859 2.62354L25.1074 4.58883L7.5835 14.9066L21.9956 29.6463Z"
        fill="url(#paint0_linear_807_3853)" />
    <path
        d="M3.38869 13.738L21.9958 29.6463L15.9361 2.62354L3.80453 9.4637C2.21929 10.3575 2.00546 12.5554 3.38869 13.738Z"
        fill="url(#paint1_linear_807_3853)" />
    <path
        d="M3.38869 13.7379L21.9958 29.6463L31.896 2.6665L4.15825 9.3781C3.92356 9.43487 3.69268 9.51738 3.50031 9.66331C2.1976 10.6516 2.0995 12.6357 3.38869 13.7379Z"
        fill="url(#paint2_linear_807_3853)" />
    <path
        d="M31.9857 2.62354H15.9358L3.79989 9.46616C2.21587 10.3593 2.00087 12.5548 3.38155 13.7383L10.8588 20.1474C9.75754 19.2034 9.85965 17.4694 11.0642 16.6612L31.9857 2.62354Z"
        fill="url(#paint3_linear_807_3853)" />
    <path
        d="M25.9261 2.62354H17.4099L4.54819 10.1043C2.98913 11.0111 2.79093 13.1852 4.16033 14.359L8.23849 17.8546C7.13695 16.9103 7.23865 15.1761 8.443 14.3671L25.9261 2.62354Z"
        fill="url(#paint4_linear_807_3853)" />
    <path
        d="M20.194 2.62354H15.9358L3.79443 9.47322C2.20339 10.3708 1.99595 12.58 3.39209 13.7581L5.82721 15.8129C4.6046 14.7812 4.71628 12.8643 6.05043 11.9816L20.194 2.62354Z"
        fill="url(#paint5_linear_807_3853)" />
    <defs>
        <linearGradient id="paint0_linear_807_3853" x1="24.0459" y1="15.073" x2="-4.05664" y2="42.3551"
            gradientUnits="userSpaceOnUse">
            <stop offset="0.10651" stop-color="#00746B" />
            <stop offset="0.537132" stop-color="#6FECE3" />
            <stop offset="0.760384" stop-color="#8CF4C3" />
            <stop offset="0.977965" stop-color="#004F49" />
        </linearGradient>
        <linearGradient id="paint1_linear_807_3853" x1="12.2814" y1="16.3038" x2="3.5432" y2="34.9916"
            gradientUnits="userSpaceOnUse">
            <stop offset="0.10651" stop-color="#0BA499" />
            <stop offset="0.537132" stop-color="#6FECE3" />
            <stop offset="0.760384" stop-color="#8CF4C3" />
            <stop offset="0.977965" stop-color="#028B82" />
        </linearGradient>
        <linearGradient id="paint2_linear_807_3853" x1="13.6397" y1="11.5842" x2="23.4858" y2="27.2819"
            gradientUnits="userSpaceOnUse">
            <stop offset="0.109977" stop-color="#06433F" />
            <stop offset="0.296412" stop-color="#004F49" stop-opacity="0" />
        </linearGradient>
        <linearGradient id="paint3_linear_807_3853" x1="28.6138" y1="0.302148" x2="7.92455" y2="21.6862"
            gradientUnits="userSpaceOnUse">
            <stop offset="0.10651" stop-color="#05915E" />
            <stop offset="0.364188" stop-color="#3CD077" />
            <stop offset="0.537132" stop-color="#6FECB0" />
            <stop offset="0.788628" stop-color="#60FFB4" />
            <stop offset="0.977965" stop-color="#004F49" />
        </linearGradient>
        <linearGradient id="paint4_linear_807_3853" x1="19.3291" y1="2.07665" x2="5.49675" y2="17.749"
            gradientUnits="userSpaceOnUse">
            <stop offset="0.10651" stop-color="#0AA46C" />
            <stop offset="0.364188" stop-color="#40CE79" />
            <stop offset="0.537132" stop-color="#6FECB0" />
            <stop offset="0.760384" stop-color="#60FFB4" />
            <stop offset="0.977965" stop-color="#004F49" />
        </linearGradient>
        <linearGradient id="paint5_linear_807_3853" x1="14.9078" y1="2.14995" x2="2.84958" y2="14.7916"
            gradientUnits="userSpaceOnUse">
            <stop offset="0.10651" stop-color="#017C50" />
            <stop offset="0.364188" stop-color="#3BBC6E" />
            <stop offset="0.537132" stop-color="#6FECB0" />
            <stop offset="0.744375" stop-color="#60FFB4" />
            <stop offset="0.977965" stop-color="#004F49" />
        </linearGradient>
    </defs>
</svg>