<svg width="20" height="20" viewBox="0 0 20 20"  fill="currentColor" xmlns="http://www.w3.org/2000/svg">
<path fill-rule="evenodd" clip-rule="evenodd" d="M6.65634 4.80639C6.28969 5.06598 5.95312 5.36662 5.64807 5.70687C3.55894 8.03211 3.62714 11.7528 5.79986 14.0003C6.94818 15.189 8.49101 15.8519 10.1438 15.8658C10.1622 15.8665 10.1812 15.8665 10.2003 15.8665C11.8319 15.8665 13.3637 15.2337 14.5193 14.0802C14.7599 13.8405 14.9784 13.5831 15.1742 13.3088C12.8673 13.5963 10.5024 12.8234 8.82246 11.1471C7.14324 9.47082 6.36596 7.11111 6.65634 4.80639ZM10.2002 17.3331C10.1768 17.3331 10.154 17.3331 10.1306 17.3324C8.08176 17.3148 6.16862 16.4935 4.74532 15.0203C2.04903 12.2302 1.9647 7.61266 4.55613 4.72719C5.36348 3.82745 6.34901 3.15063 7.48487 2.71579C7.75252 2.61166 8.05683 2.67619 8.26142 2.87858C8.466 3.08023 8.5342 3.38308 8.43521 3.65293C7.61539 5.89311 8.17416 8.42734 9.85851 10.1088C11.5436 11.7902 14.0844 12.3482 16.3319 11.5299C16.6018 11.4301 16.9054 11.5005 17.1063 11.7044C17.3072 11.9104 17.371 12.214 17.2676 12.4817C16.8834 13.4811 16.307 14.3684 15.5547 15.1186C14.1226 16.5485 12.2234 17.3331 10.2002 17.3331Z" fill="white"/>
</svg>
