<svg width="50" height="75" viewBox="0 0 50 75" fill="none" xmlns="http://www.w3.org/2000/svg">
<path fill-rule="evenodd" clip-rule="evenodd" d="M24.25 0.500061C20.8721 0.501128 19.0856 0.517111 17.5743 0.756477C8.65986 2.16838 1.6684 9.15984 0.256494 18.0743C0 19.6937 0 21.6291 0 25.5V49.0058C2.4869 39.8315 10.8721 33.0833 20.8333 33.0833H29.1667C39.1279 33.0833 47.5131 39.8315 50 49.0058V25.5C50 21.6291 50 19.6937 49.7435 18.0743C48.3316 9.15984 41.3401 2.16838 32.4257 0.756478C30.9144 0.517112 29.1279 0.501129 25.75 0.500061L25.75 21.3333C25.75 21.7475 25.4142 22.0833 25 22.0833C24.5858 22.0833 24.25 21.7475 24.25 21.3333L24.25 0.500061ZM49.0027 57.8084C49.1603 56.8133 49.2175 55.6874 49.2382 53.9722C48.8722 43.2021 40.026 34.5833 29.1667 34.5833H20.8333C9.97404 34.5833 1.12776 43.202 0.761779 53.9722C0.782501 55.6874 0.839658 56.8133 0.997259 57.8084C2.35834 66.4019 9.0981 73.1416 17.6916 74.5027C19.238 74.7477 21.1005 74.75 25 74.75C28.8995 74.75 30.7619 74.7477 32.3084 74.5027C40.9019 73.1416 47.6417 66.4019 49.0027 57.8084Z" fill="url(#paint0_linear_3283_6580)"/>
<defs>
<linearGradient id="paint0_linear_3283_6580" x1="1.72869e-06" y1="14.7313" x2="146.28" y2="104.081" gradientUnits="userSpaceOnUse">
<stop stop-color="#776DDF"/>
<stop offset="0.510417" stop-color="#6FECE3"/>
<stop offset="1" stop-color="#A0FAAC"/>
</linearGradient>
</defs>
</svg>
