<svg width="90" height="90" viewBox="0 0 90 90" fill="none" xmlns="http://www.w3.org/2000/svg">
<path d="M41.0305 24.1392C41.3078 23.9791 41.5896 23.8352 41.8749 23.7071V40.4997C35.0958 37.5059 34.4609 27.9322 41.0305 24.1392Z" fill="url(#paint0_linear_409_1965)"/>
<path d="M48.1249 66.2932V49.4998C54.9049 52.4931 55.5401 62.0675 48.9702 65.8607C48.6926 66.0209 48.4105 66.165 48.1249 66.2932Z" fill="url(#paint1_linear_409_1965)"/>
<path fill-rule="evenodd" clip-rule="evenodd" d="M0.208252 44.9999C0.208252 20.2622 20.2622 0.208252 44.9999 0.208252C69.7377 0.208252 89.7916 20.2622 89.7916 44.9999C89.7916 69.7377 69.7377 89.7916 44.9999 89.7916C20.2622 89.7916 0.208252 69.7377 0.208252 44.9999ZM48.1249 15.8333C48.1249 14.1074 46.7258 12.7083 44.9999 12.7083C43.274 12.7083 41.8749 14.1074 41.8749 15.8333V17.117C40.5134 17.4585 39.1775 17.9922 37.9055 18.7266C26.5644 25.2744 28.0058 42.0787 40.2964 46.5994L41.8749 47.1801V66.7476C39.6463 66.1189 37.6551 64.654 36.4085 62.4947L34.8436 59.7843C33.9807 58.2897 32.0694 57.7776 30.5748 58.6405C29.0801 59.5034 28.568 61.4147 29.4309 62.9093L30.9958 65.6197C33.406 69.7944 37.4694 72.415 41.8749 73.1394V74.1666C41.8749 75.8925 43.274 77.2916 44.9999 77.2916C46.7258 77.2916 48.1249 75.8925 48.1249 74.1666V72.8831C49.4867 72.5416 50.8229 72.0079 52.0952 71.2733C63.4363 64.7255 61.9949 47.9212 49.7043 43.4005L48.1249 42.8196V23.2521C50.3539 23.8805 52.3454 25.3456 53.5923 27.5051L55.1571 30.2155C56.0201 31.7102 57.9313 32.2223 59.4259 31.3594C60.9206 30.4964 61.4327 28.5852 60.5698 27.0905L59.0049 24.3801C56.5945 20.2052 52.5308 17.5846 48.1249 16.8603V15.8333Z" fill="url(#paint2_linear_409_1965)"/>
<defs>
<linearGradient id="paint0_linear_409_1965" x1="0.208252" y1="17.3784" x2="95.5426" y2="58.5623" gradientUnits="userSpaceOnUse">
<stop stop-color="#776DDF"/>
<stop offset="0.510417" stop-color="#6FECE3"/>
<stop offset="1" stop-color="#A0FAAC"/>
</linearGradient>
<linearGradient id="paint1_linear_409_1965" x1="0.208252" y1="17.3784" x2="95.5426" y2="58.5623" gradientUnits="userSpaceOnUse">
<stop stop-color="#776DDF"/>
<stop offset="0.510417" stop-color="#6FECE3"/>
<stop offset="1" stop-color="#A0FAAC"/>
</linearGradient>
<linearGradient id="paint2_linear_409_1965" x1="0.208252" y1="17.3784" x2="95.5426" y2="58.5623" gradientUnits="userSpaceOnUse">
<stop stop-color="#776DDF"/>
<stop offset="0.510417" stop-color="#6FECE3"/>
<stop offset="1" stop-color="#A0FAAC"/>
</linearGradient>
</defs>
</svg>
