<svg width="100" height="100" viewBox="0 0 100 100" fill="none" xmlns="http://www.w3.org/2000/svg">
<path fill-rule="evenodd" clip-rule="evenodd" d="M49.25 12.5001C45.8721 12.5011 44.0856 12.5171 42.5743 12.7565C33.6599 14.1684 26.6684 21.1598 25.2565 30.0743C25 31.6937 25 33.6291 25 37.5V61.0058C27.4869 51.8315 35.8721 45.0833 45.8333 45.0833H54.1667C64.1279 45.0833 72.5131 51.8315 75 61.0058V37.5C75 33.6291 75 31.6937 74.7435 30.0743C73.3316 21.1598 66.3401 14.1684 57.4257 12.7565C55.9144 12.5171 54.1279 12.5011 50.75 12.5001L50.75 33.3333C50.75 33.7475 50.4142 34.0833 50 34.0833C49.5858 34.0833 49.25 33.7475 49.25 33.3333L49.25 12.5001ZM74.0027 69.8084C74.1603 68.8133 74.2175 67.6874 74.2382 65.9722C73.8722 55.2021 65.026 46.5833 54.1667 46.5833H45.8333C34.974 46.5833 26.1278 55.202 25.7618 65.9722C25.7825 67.6874 25.8397 68.8133 25.9973 69.8084C27.3583 78.4019 34.0981 85.1416 42.6916 86.5027C44.238 86.7477 46.1005 86.75 50 86.75C53.8995 86.75 55.7619 86.7477 57.3084 86.5027C65.9019 85.1416 72.6417 78.4019 74.0027 69.8084Z" fill="url(#paint0_linear_734_6227)"/>
<defs>
<linearGradient id="paint0_linear_734_6227" x1="25" y1="26.7313" x2="83.2135" y2="43.6659" gradientUnits="userSpaceOnUse">
<stop stop-color="#776DDF"/>
<stop offset="0.510417" stop-color="#6FECE3"/>
<stop offset="1" stop-color="#A0FAAC"/>
</linearGradient>
</defs>
</svg>
