<svg width="32" height="32" viewBox="0 0 32 32" fill="none" xmlns="http://www.w3.org/2000/svg">
<path fill-rule="evenodd" clip-rule="evenodd" d="M22.6667 5.33337H25.3333C26.0667 5.33337 26.6667 5.93337 26.6667 6.66671V25.3334C26.6667 26.0667 26.0667 26.6667 25.3333 26.6667H22.6667C21.9333 26.6667 21.3333 26.0667 21.3333 25.3334C21.3333 24.6 21.9333 24 22.6667 24H24V8.00004H22.6667C21.9333 8.00004 21.3333 7.40004 21.3333 6.66671C21.3333 5.93337 21.9333 5.33337 22.6667 5.33337ZM13.8664 9.60057C14.4584 9.15924 15.2917 9.27924 15.7331 9.86724L19.7331 15.2006C20.0797 15.6619 20.0904 16.2939 19.7571 16.7672L16.0051 22.1006C15.7451 22.4699 15.3331 22.6672 14.9131 22.6672C14.6491 22.6672 14.3811 22.5886 14.1477 22.4246C13.5451 22.0006 13.3997 21.1686 13.8237 20.5659L16.1144 17.3099C16.0964 17.3117 16.0796 17.3167 16.0628 17.3217C16.0422 17.3278 16.0218 17.3339 15.9997 17.3339H5.33307C4.59707 17.3339 3.99973 16.7366 3.99973 16.0006C3.99973 15.2632 4.59707 14.6672 5.33307 14.6672H15.9997H16.0011L13.5997 11.4659C13.1584 10.8779 13.2771 10.0419 13.8664 9.60057Z" fill="url(#paint0_linear_1411_9387)"/>
<mask id="mask0_1411_9387" style="mask-type:luminance" maskUnits="userSpaceOnUse" x="3" y="5" width="24" height="22">
<path fill-rule="evenodd" clip-rule="evenodd" d="M22.6667 5.33337H25.3333C26.0667 5.33337 26.6667 5.93337 26.6667 6.66671V25.3334C26.6667 26.0667 26.0667 26.6667 25.3333 26.6667H22.6667C21.9333 26.6667 21.3333 26.0667 21.3333 25.3334C21.3333 24.6 21.9333 24 22.6667 24H24V8.00004H22.6667C21.9333 8.00004 21.3333 7.40004 21.3333 6.66671C21.3333 5.93337 21.9333 5.33337 22.6667 5.33337ZM13.8664 9.60057C14.4584 9.15924 15.2917 9.27924 15.7331 9.86724L19.7331 15.2006C20.0797 15.6619 20.0904 16.2939 19.7571 16.7672L16.0051 22.1006C15.7451 22.4699 15.3331 22.6672 14.9131 22.6672C14.6491 22.6672 14.3811 22.5886 14.1477 22.4246C13.5451 22.0006 13.3997 21.1686 13.8237 20.5659L16.1144 17.3099C16.0964 17.3117 16.0796 17.3167 16.0628 17.3217C16.0422 17.3278 16.0218 17.3339 15.9997 17.3339H5.33307C4.59707 17.3339 3.99973 16.7366 3.99973 16.0006C3.99973 15.2632 4.59707 14.6672 5.33307 14.6672H15.9997H16.0011L13.5997 11.4659C13.1584 10.8779 13.2771 10.0419 13.8664 9.60057Z" fill="white"/>
</mask>
<g mask="url(#mask0_1411_9387)">
</g>
<defs>
<linearGradient id="paint0_linear_1411_9387" x1="3.99973" y1="9.42226" x2="27.6424" y2="20.2742" gradientUnits="userSpaceOnUse">
<stop stop-color="#776DDF"/>
<stop offset="0.510417" stop-color="#6FECE3"/>
<stop offset="1" stop-color="#A0FAAC"/>
</linearGradient>
</defs>
</svg>
