<svg width="360" height="402" viewBox="0 0 360 402" fill="none" xmlns="http://www.w3.org/2000/svg">
<path d="M185.332 201.498L200.165 193.731L194.673 193.532L174.399 200.984L159.567 208.751L165.058 208.95L185.332 201.498Z" stroke="url(#paint0_linear_734_6010)" stroke-width="2" stroke-miterlimit="10"/>
<path d="M185.48 201.632L201.426 193.526L195.811 193.135L174.193 200.825L158.248 208.932L163.92 209.348L185.48 201.632Z" stroke="url(#paint1_linear_734_6010)" stroke-width="2" stroke-miterlimit="10"/>
<path d="M185.628 201.766L202.77 193.287L197.032 192.705L174.045 200.692L156.904 209.17L162.641 209.752L185.628 201.766Z" stroke="url(#paint2_linear_734_6010)" stroke-width="2" stroke-miterlimit="10"/>
<path d="M185.751 201.957L204.255 193.042L198.311 192.3L173.922 200.5L155.476 209.441L161.362 210.157L185.751 201.957Z" stroke="url(#paint3_linear_734_6010)" stroke-width="2" stroke-miterlimit="10"/>
<path d="M185.849 202.206L205.715 192.854L199.673 191.863L173.825 200.251L153.959 209.603L160 210.594L185.849 202.206Z" stroke="url(#paint4_linear_734_6010)" stroke-width="2" stroke-miterlimit="10"/>
<path d="M186.004 202.481L207.257 192.634L201.151 191.477L173.727 200.002L152.416 209.824L158.58 211.006L186.004 202.481Z" stroke="url(#paint5_linear_734_6010)" stroke-width="2" stroke-miterlimit="10"/>
<path d="M186.102 202.73L208.89 192.522L202.654 191.032L173.63 199.752L150.783 209.935L157.019 211.425L186.102 202.73Z" stroke="url(#paint6_linear_734_6010)" stroke-width="2" stroke-miterlimit="10"/>
<path d="M186.116 203.012L210.607 192.377L204.298 190.581L173.557 199.445L149.125 210.105L155.433 211.902L186.116 203.012Z" stroke="url(#paint7_linear_734_6010)" stroke-width="2" stroke-miterlimit="10"/>
<path d="M186.188 203.319L212.323 192.233L206 190.155L173.485 199.138L147.351 210.224L153.731 212.328L186.188 203.319Z" stroke="url(#paint8_linear_734_6010)" stroke-width="2" stroke-miterlimit="10"/>
<path d="M186.235 203.684L214.155 192.139L207.785 189.696L173.496 198.798L145.519 210.318L151.888 212.761L186.235 203.684Z" stroke="url(#paint9_linear_734_6010)" stroke-width="2" stroke-miterlimit="10"/>
<path d="M186.199 204.082L216.019 192.128L209.686 189.288L173.474 198.376L143.654 210.329L149.988 213.169L186.199 204.082Z" stroke="url(#paint10_linear_734_6010)" stroke-width="2" stroke-miterlimit="10"/>
<path d="M186.163 204.479L217.967 192.085L211.669 188.848L173.51 197.978L141.707 210.372L148.004 213.61L186.163 204.479Z" stroke="url(#paint11_linear_734_6010)" stroke-width="2" stroke-miterlimit="10"/>
<path d="M186.076 204.992L220.004 192.151L213.794 188.4L173.597 197.465L139.669 210.307L145.938 214.083L186.076 204.992Z" stroke="url(#paint12_linear_734_6010)" stroke-width="2" stroke-miterlimit="10"/>
<path d="M185.932 205.48L222.1 192.241L215.976 187.977L173.742 196.977L137.631 210.242L143.697 214.48L185.932 205.48Z" stroke="url(#paint13_linear_734_6010)" stroke-width="2" stroke-miterlimit="10"/>
<path d="M185.762 206.026L224.17 192.389L218.299 187.547L173.912 196.432L135.478 210.126L141.374 214.91L185.762 206.026Z" stroke="url(#paint14_linear_734_6010)" stroke-width="2" stroke-miterlimit="10"/>
<path d="M185.541 206.687L226.414 192.614L220.738 187.168L174.19 195.796L133.317 209.869L138.993 215.314L185.541 206.687Z" stroke="url(#paint15_linear_734_6010)" stroke-width="2" stroke-miterlimit="10"/>
<path d="M185.263 207.323L228.632 192.896L223.235 186.814L174.468 195.16L131.041 209.562L136.439 215.643L185.263 207.323Z" stroke="url(#paint16_linear_734_6010)" stroke-width="2" stroke-miterlimit="10"/>
<path d="M184.876 208.049L230.909 193.203L225.873 186.453L174.797 194.408L128.765 209.254L133.801 216.004L184.876 208.049Z" stroke="url(#paint17_linear_734_6010)" stroke-width="2" stroke-miterlimit="10"/>
<path d="M184.464 208.833L233.25 193.676L228.626 186.143L175.267 193.65L126.424 208.781L131.022 216.372L184.464 208.833Z" stroke="url(#paint18_linear_734_6010)" stroke-width="2" stroke-miterlimit="10"/>
<path d="M183.912 209.624L235.624 194.233L231.52 185.825L175.762 192.833L124.108 208.25L128.154 216.632L183.912 209.624Z" stroke="url(#paint19_linear_734_6010)" stroke-width="2" stroke-miterlimit="10"/>
<path d="M183.283 210.589L238.005 194.931L234.504 185.616L176.391 191.869L121.727 207.552L125.169 216.842L183.283 210.589Z" stroke="url(#paint20_linear_734_6010)" stroke-width="2" stroke-miterlimit="10"/>
<path d="M182.596 211.528L240.418 195.711L237.63 185.399L177.077 190.929L119.313 206.771L122.102 217.083L182.596 211.528Z" stroke="url(#paint21_linear_734_6010)" stroke-width="2" stroke-miterlimit="10"/>
<path d="M181.776 212.616L242.781 196.607L240.871 185.233L177.897 189.842L116.892 205.85L118.861 217.249L181.776 212.616Z" stroke="url(#paint22_linear_734_6010)" stroke-width="2" stroke-miterlimit="10"/>
<path d="M180.847 213.793L245.184 197.728L244.202 185.176L178.826 188.664L114.49 204.73L115.529 217.307L180.847 213.793Z" stroke="url(#paint23_linear_734_6010)" stroke-width="2" stroke-miterlimit="10"/>
<path d="M179.836 215.004L247.593 198.989L247.649 185.169L179.896 187.479L112.138 203.494L112.082 217.314L179.836 215.004Z" stroke="url(#paint24_linear_734_6010)" stroke-width="2" stroke-miterlimit="10"/>
<path d="M178.632 216.337L249.953 200.366L251.186 185.27L181.099 186.146L109.721 202.092L108.487 217.187L178.632 216.337Z" stroke="url(#paint25_linear_734_6010)" stroke-width="2" stroke-miterlimit="10"/>
<path d="M177.238 217.793L252.269 201.999L254.839 185.422L182.436 184.665L107.463 200.484L104.835 217.035L177.238 217.793Z" stroke="url(#paint26_linear_734_6010)" stroke-width="2" stroke-miterlimit="10"/>
<path d="M175.677 219.314L254.508 203.806L258.64 185.708L183.997 183.144L105.223 198.677L101.034 216.749L175.677 219.314Z" stroke="url(#paint27_linear_734_6010)" stroke-width="2" stroke-miterlimit="10"/>
<path d="M173.982 220.983L256.647 205.844L262.473 186.077L185.692 181.474L103.026 196.614L97.2002 216.38L173.982 220.983Z" stroke="url(#paint28_linear_734_6010)" stroke-width="2" stroke-miterlimit="10"/>
<path d="M172.096 222.775L258.685 208.113L266.43 186.637L187.636 179.708L100.989 194.344L93.2439 215.82L172.096 222.775Z" stroke="url(#paint29_linear_734_6010)" stroke-width="2" stroke-miterlimit="10"/>
<path d="M169.96 224.664L260.571 210.729L270.476 187.306L189.771 177.818L99.1028 191.728L89.1973 215.151L169.96 224.664Z" stroke="url(#paint30_linear_734_6010)" stroke-width="2" stroke-miterlimit="10"/>
<path d="M167.575 226.651L262.355 213.576L274.588 188.141L192.098 175.806L97.376 188.906L85.0856 214.316L167.575 226.651Z" stroke="url(#paint31_linear_734_6010)" stroke-width="2" stroke-miterlimit="10"/>
<path d="M164.974 228.819L263.847 216.777L278.739 189.2L194.7 173.638L95.8262 185.68L80.9921 213.283L164.974 228.819Z" stroke="url(#paint32_linear_734_6010)" stroke-width="2" stroke-miterlimit="10"/>
<path d="M162.097 231.142L265.213 220.268L282.898 190.4L197.576 171.315L94.5185 182.215L76.7756 212.057L162.097 231.142Z" stroke="url(#paint33_linear_734_6010)" stroke-width="2" stroke-miterlimit="10"/>
<path d="M158.889 233.595L266.26 224.17L287.154 191.849L200.785 168.862L93.4711 178.312L72.5196 210.608L158.889 233.595Z" stroke="url(#paint34_linear_734_6010)" stroke-width="2" stroke-miterlimit="10"/>
<path d="M155.406 236.203L266.99 228.484L291.392 193.497L204.268 166.254L92.6838 173.973L68.2816 208.96L155.406 236.203Z" stroke="url(#paint35_linear_734_6010)" stroke-width="2" stroke-miterlimit="10"/>
<path d="M151.565 238.999L267.401 233.21L295.644 195.427L208.109 163.458L92.3301 169.272L64.0291 207.03L151.565 238.999Z" stroke="url(#paint36_linear_734_6010)" stroke-width="2" stroke-miterlimit="10"/>
<path d="M147.366 241.983L267.386 238.438L299.828 197.671L212.308 160.474L92.345 164.044L59.8453 204.786L147.366 241.983Z" stroke="url(#paint37_linear_734_6010)" stroke-width="2" stroke-miterlimit="10"/>
<path d="M142.81 245.155L266.887 244.143L303.943 200.229L216.922 157.327L92.7863 158.314L55.7302 202.228L142.81 245.155Z" stroke="url(#paint38_linear_734_6010)" stroke-width="2" stroke-miterlimit="10"/>
<path d="M137.754 248.522L265.936 250.408L307.99 203.102L221.919 153.935L93.7948 152.074L51.6837 199.355L137.754 248.522Z" stroke="url(#paint39_linear_734_6010)" stroke-width="2" stroke-miterlimit="10"/>
<path d="M132.284 252.052L264.335 257.215L311.917 206.405L227.389 150.405L95.3383 145.242L47.8145 196.078L132.284 252.052Z" stroke="url(#paint40_linear_734_6010)" stroke-width="2" stroke-miterlimit="10"/>
<path d="M126.347 255.86L262.149 264.731L315.667 210.112L233.384 146.623L97.5826 137.752L44.0643 192.37L126.347 255.86Z" stroke="url(#paint41_linear_734_6010)" stroke-width="2" stroke-miterlimit="10"/>
<path d="M119.854 259.837L259.229 272.82L319.182 214.199L239.819 142.62L100.503 129.663L40.4913 188.258L119.854 259.837Z" stroke="url(#paint42_linear_734_6010)" stroke-width="2" stroke-miterlimit="10"/>
<path d="M112.837 264.067L255.499 281.657L322.527 218.831L246.894 138.415L104.232 120.825L37.2038 183.651L112.837 264.067Z" stroke="url(#paint43_linear_734_6010)" stroke-width="2" stroke-miterlimit="10"/>
<path d="M105.181 268.5L250.877 291.275L325.504 223.991L254.493 133.957L108.854 111.207L34.1693 178.466L105.181 268.5Z" stroke="url(#paint44_linear_734_6010)" stroke-width="2" stroke-miterlimit="10"/>
<path d="M96.9171 273.218L245.222 301.68L328.17 229.703L262.756 129.239L114.452 100.777L31.561 172.779L96.9171 273.218Z" stroke="url(#paint45_linear_734_6010)" stroke-width="2" stroke-miterlimit="10"/>
<path d="M87.9888 278.196L238.54 313.014L330.359 236.034L271.685 124.261L121.133 89.4431L29.3143 166.423L87.9888 278.196Z" stroke="url(#paint46_linear_734_6010)" stroke-width="2" stroke-miterlimit="10"/>
<path d="M78.3377 283.409L230.634 325.258L332.129 243.007L281.336 119.048L129.098 77.2244L27.5444 159.45L78.3377 283.409Z" stroke="url(#paint47_linear_734_6010)" stroke-width="2" stroke-miterlimit="10"/>
<path d="M67.9134 288.972L221.419 338.445L333.288 250.747L291.76 113.485L138.254 64.0122L26.3853 151.711L67.9134 288.972Z" stroke="url(#paint48_linear_734_6010)" stroke-width="2" stroke-miterlimit="10"/>
<path d="M56.7088 294.745L210.763 352.723L333.862 259.194L302.965 107.712L148.968 49.7594L25.8115 143.263L56.7088 294.745Z" stroke="url(#paint49_linear_734_6010)" stroke-width="2" stroke-miterlimit="10"/>
<path d="M44.6152 300.818L198.441 368.132L333.691 268.556L315.058 101.64L161.233 34.3252L25.9821 133.902L44.6152 300.818Z" stroke="url(#paint50_linear_734_6010)" stroke-width="2" stroke-miterlimit="10"/>
<defs>
<linearGradient id="paint0_linear_734_6010" x1="194.691" y1="191.336" x2="169.403" y2="215.558" gradientUnits="userSpaceOnUse">
<stop stop-color="#776DDF"/>
<stop offset="0.510417" stop-color="#6FECE3"/>
<stop offset="1" stop-color="#A0FAAC"/>
</linearGradient>
<linearGradient id="paint1_linear_734_6010" x1="195.564" y1="190.961" x2="169.228" y2="216.604" gradientUnits="userSpaceOnUse">
<stop stop-color="#776DDF"/>
<stop offset="0.510417" stop-color="#6FECE3"/>
<stop offset="1" stop-color="#A0FAAC"/>
</linearGradient>
<linearGradient id="paint2_linear_734_6010" x1="196.51" y1="190.548" x2="169.007" y2="217.676" gradientUnits="userSpaceOnUse">
<stop stop-color="#776DDF"/>
<stop offset="0.510417" stop-color="#6FECE3"/>
<stop offset="1" stop-color="#A0FAAC"/>
</linearGradient>
<linearGradient id="paint3_linear_734_6010" x1="197.563" y1="190.113" x2="168.797" y2="218.842" gradientUnits="userSpaceOnUse">
<stop stop-color="#776DDF"/>
<stop offset="0.510417" stop-color="#6FECE3"/>
<stop offset="1" stop-color="#A0FAAC"/>
</linearGradient>
<linearGradient id="paint4_linear_734_6010" x1="198.568" y1="189.726" x2="168.685" y2="220.034" gradientUnits="userSpaceOnUse">
<stop stop-color="#776DDF"/>
<stop offset="0.510417" stop-color="#6FECE3"/>
<stop offset="1" stop-color="#A0FAAC"/>
</linearGradient>
<linearGradient id="paint5_linear_734_6010" x1="199.645" y1="189.303" x2="168.528" y2="221.255" gradientUnits="userSpaceOnUse">
<stop stop-color="#776DDF"/>
<stop offset="0.510417" stop-color="#6FECE3"/>
<stop offset="1" stop-color="#A0FAAC"/>
</linearGradient>
<linearGradient id="paint6_linear_734_6010" x1="200.769" y1="188.968" x2="168.58" y2="222.573" gradientUnits="userSpaceOnUse">
<stop stop-color="#776DDF"/>
<stop offset="0.510417" stop-color="#6FECE3"/>
<stop offset="1" stop-color="#A0FAAC"/>
</linearGradient>
<linearGradient id="paint7_linear_734_6010" x1="201.964" y1="188.596" x2="168.587" y2="223.92" gradientUnits="userSpaceOnUse">
<stop stop-color="#776DDF"/>
<stop offset="0.510417" stop-color="#6FECE3"/>
<stop offset="1" stop-color="#A0FAAC"/>
</linearGradient>
<linearGradient id="paint8_linear_734_6010" x1="203.138" y1="188.214" x2="168.588" y2="225.28" gradientUnits="userSpaceOnUse">
<stop stop-color="#776DDF"/>
<stop offset="0.510417" stop-color="#6FECE3"/>
<stop offset="1" stop-color="#A0FAAC"/>
</linearGradient>
<linearGradient id="paint9_linear_734_6010" x1="204.393" y1="187.868" x2="168.698" y2="226.715" gradientUnits="userSpaceOnUse">
<stop stop-color="#776DDF"/>
<stop offset="0.510417" stop-color="#6FECE3"/>
<stop offset="1" stop-color="#A0FAAC"/>
</linearGradient>
<linearGradient id="paint10_linear_734_6010" x1="205.685" y1="187.537" x2="168.86" y2="228.182" gradientUnits="userSpaceOnUse">
<stop stop-color="#776DDF"/>
<stop offset="0.510417" stop-color="#6FECE3"/>
<stop offset="1" stop-color="#A0FAAC"/>
</linearGradient>
<linearGradient id="paint11_linear_734_6010" x1="207.164" y1="186.876" x2="168.475" y2="229.762" gradientUnits="userSpaceOnUse">
<stop stop-color="#776DDF"/>
<stop offset="0.510417" stop-color="#6FECE3"/>
<stop offset="1" stop-color="#A0FAAC"/>
</linearGradient>
<linearGradient id="paint12_linear_734_6010" x1="208.739" y1="186.188" x2="168.098" y2="231.448" gradientUnits="userSpaceOnUse">
<stop stop-color="#776DDF"/>
<stop offset="0.510417" stop-color="#6FECE3"/>
<stop offset="1" stop-color="#A0FAAC"/>
</linearGradient>
<linearGradient id="paint13_linear_734_6010" x1="210.361" y1="185.52" x2="167.777" y2="233.169" gradientUnits="userSpaceOnUse">
<stop stop-color="#776DDF"/>
<stop offset="0.510417" stop-color="#6FECE3"/>
<stop offset="1" stop-color="#A0FAAC"/>
</linearGradient>
<linearGradient id="paint14_linear_734_6010" x1="211.986" y1="184.785" x2="167.351" y2="234.922" gradientUnits="userSpaceOnUse">
<stop stop-color="#776DDF"/>
<stop offset="0.510417" stop-color="#6FECE3"/>
<stop offset="1" stop-color="#A0FAAC"/>
</linearGradient>
<linearGradient id="paint15_linear_734_6010" x1="213.741" y1="184.106" x2="167.09" y2="236.791" gradientUnits="userSpaceOnUse">
<stop stop-color="#776DDF"/>
<stop offset="0.510417" stop-color="#6FECE3"/>
<stop offset="1" stop-color="#A0FAAC"/>
</linearGradient>
<linearGradient id="paint16_linear_734_6010" x1="215.473" y1="183.418" x2="166.824" y2="238.677" gradientUnits="userSpaceOnUse">
<stop stop-color="#776DDF"/>
<stop offset="0.510417" stop-color="#6FECE3"/>
<stop offset="1" stop-color="#A0FAAC"/>
</linearGradient>
<linearGradient id="paint17_linear_734_6010" x1="217.277" y1="182.692" x2="166.514" y2="240.611" gradientUnits="userSpaceOnUse">
<stop stop-color="#776DDF"/>
<stop offset="0.510417" stop-color="#6FECE3"/>
<stop offset="1" stop-color="#A0FAAC"/>
</linearGradient>
<linearGradient id="paint18_linear_734_6010" x1="219.152" y1="181.997" x2="166.247" y2="242.669" gradientUnits="userSpaceOnUse">
<stop stop-color="#776DDF"/>
<stop offset="0.510417" stop-color="#6FECE3"/>
<stop offset="1" stop-color="#A0FAAC"/>
</linearGradient>
<linearGradient id="paint19_linear_734_6010" x1="221.1" y1="181.265" x2="166.06" y2="244.7" gradientUnits="userSpaceOnUse">
<stop stop-color="#776DDF"/>
<stop offset="0.510417" stop-color="#6FECE3"/>
<stop offset="1" stop-color="#A0FAAC"/>
</linearGradient>
<linearGradient id="paint20_linear_734_6010" x1="223.047" y1="180.602" x2="165.959" y2="246.798" gradientUnits="userSpaceOnUse">
<stop stop-color="#776DDF"/>
<stop offset="0.510417" stop-color="#6FECE3"/>
<stop offset="1" stop-color="#A0FAAC"/>
</linearGradient>
<linearGradient id="paint21_linear_734_6010" x1="225.055" y1="179.896" x2="165.811" y2="248.954" gradientUnits="userSpaceOnUse">
<stop stop-color="#776DDF"/>
<stop offset="0.510417" stop-color="#6FECE3"/>
<stop offset="1" stop-color="#A0FAAC"/>
</linearGradient>
<linearGradient id="paint22_linear_734_6010" x1="227.051" y1="179.186" x2="165.659" y2="251.115" gradientUnits="userSpaceOnUse">
<stop stop-color="#776DDF"/>
<stop offset="0.510417" stop-color="#6FECE3"/>
<stop offset="1" stop-color="#A0FAAC"/>
</linearGradient>
<linearGradient id="paint23_linear_734_6010" x1="229.105" y1="178.569" x2="165.711" y2="253.324" gradientUnits="userSpaceOnUse">
<stop stop-color="#776DDF"/>
<stop offset="0.510417" stop-color="#6FECE3"/>
<stop offset="1" stop-color="#A0FAAC"/>
</linearGradient>
<linearGradient id="paint24_linear_734_6010" x1="231.205" y1="177.973" x2="165.816" y2="255.559" gradientUnits="userSpaceOnUse">
<stop stop-color="#776DDF"/>
<stop offset="0.510417" stop-color="#6FECE3"/>
<stop offset="1" stop-color="#A0FAAC"/>
</linearGradient>
<linearGradient id="paint25_linear_734_6010" x1="233.258" y1="177.425" x2="166.01" y2="257.78" gradientUnits="userSpaceOnUse">
<stop stop-color="#776DDF"/>
<stop offset="0.510417" stop-color="#6FECE3"/>
<stop offset="1" stop-color="#A0FAAC"/>
</linearGradient>
<linearGradient id="paint26_linear_734_6010" x1="235.369" y1="176.902" x2="166.259" y2="260.017" gradientUnits="userSpaceOnUse">
<stop stop-color="#776DDF"/>
<stop offset="0.510417" stop-color="#6FECE3"/>
<stop offset="1" stop-color="#A0FAAC"/>
</linearGradient>
<linearGradient id="paint27_linear_734_6010" x1="237.444" y1="176.433" x2="166.599" y2="262.228" gradientUnits="userSpaceOnUse">
<stop stop-color="#776DDF"/>
<stop offset="0.510417" stop-color="#6FECE3"/>
<stop offset="1" stop-color="#A0FAAC"/>
</linearGradient>
<linearGradient id="paint28_linear_734_6010" x1="239.482" y1="176.016" x2="167.028" y2="264.41" gradientUnits="userSpaceOnUse">
<stop stop-color="#776DDF"/>
<stop offset="0.510417" stop-color="#6FECE3"/>
<stop offset="1" stop-color="#A0FAAC"/>
</linearGradient>
<linearGradient id="paint29_linear_734_6010" x1="241.48" y1="175.719" x2="167.648" y2="266.52" gradientUnits="userSpaceOnUse">
<stop stop-color="#776DDF"/>
<stop offset="0.510417" stop-color="#6FECE3"/>
<stop offset="1" stop-color="#A0FAAC"/>
</linearGradient>
<linearGradient id="paint30_linear_734_6010" x1="243.454" y1="175.481" x2="168.358" y2="268.59" gradientUnits="userSpaceOnUse">
<stop stop-color="#776DDF"/>
<stop offset="0.510417" stop-color="#6FECE3"/>
<stop offset="1" stop-color="#A0FAAC"/>
</linearGradient>
<linearGradient id="paint31_linear_734_6010" x1="245.947" y1="175.607" x2="170.056" y2="271.149" gradientUnits="userSpaceOnUse">
<stop stop-color="#776DDF"/>
<stop offset="0.510417" stop-color="#6FECE3"/>
<stop offset="1" stop-color="#A0FAAC"/>
</linearGradient>
<linearGradient id="paint32_linear_734_6010" x1="248.624" y1="176.022" x2="172.365" y2="273.793" gradientUnits="userSpaceOnUse">
<stop stop-color="#776DDF"/>
<stop offset="0.510417" stop-color="#6FECE3"/>
<stop offset="1" stop-color="#A0FAAC"/>
</linearGradient>
<linearGradient id="paint33_linear_734_6010" x1="251.265" y1="176.557" x2="174.869" y2="276.335" gradientUnits="userSpaceOnUse">
<stop stop-color="#776DDF"/>
<stop offset="0.510417" stop-color="#6FECE3"/>
<stop offset="1" stop-color="#A0FAAC"/>
</linearGradient>
<linearGradient id="paint34_linear_734_6010" x1="253.948" y1="177.318" x2="177.761" y2="278.778" gradientUnits="userSpaceOnUse">
<stop stop-color="#776DDF"/>
<stop offset="0.510417" stop-color="#6FECE3"/>
<stop offset="1" stop-color="#A0FAAC"/>
</linearGradient>
<linearGradient id="paint35_linear_734_6010" x1="256.59" y1="178.268" x2="180.927" y2="281.045" gradientUnits="userSpaceOnUse">
<stop stop-color="#776DDF"/>
<stop offset="0.510417" stop-color="#6FECE3"/>
<stop offset="1" stop-color="#A0FAAC"/>
</linearGradient>
<linearGradient id="paint36_linear_734_6010" x1="259.203" y1="179.48" x2="184.492" y2="283.105" gradientUnits="userSpaceOnUse">
<stop stop-color="#776DDF"/>
<stop offset="0.510417" stop-color="#6FECE3"/>
<stop offset="1" stop-color="#A0FAAC"/>
</linearGradient>
<linearGradient id="paint37_linear_734_6010" x1="261.725" y1="180.997" x2="188.479" y2="284.86" gradientUnits="userSpaceOnUse">
<stop stop-color="#776DDF"/>
<stop offset="0.510417" stop-color="#6FECE3"/>
<stop offset="1" stop-color="#A0FAAC"/>
</linearGradient>
<linearGradient id="paint38_linear_734_6010" x1="265.927" y1="178.772" x2="186.868" y2="289.623" gradientUnits="userSpaceOnUse">
<stop stop-color="#776DDF"/>
<stop offset="0.510417" stop-color="#6FECE3"/>
<stop offset="1" stop-color="#A0FAAC"/>
</linearGradient>
<linearGradient id="paint39_linear_734_6010" x1="270.72" y1="175.291" x2="183.348" y2="295.343" gradientUnits="userSpaceOnUse">
<stop stop-color="#776DDF"/>
<stop offset="0.510417" stop-color="#6FECE3"/>
<stop offset="1" stop-color="#A0FAAC"/>
</linearGradient>
<linearGradient id="paint40_linear_734_6010" x1="275.688" y1="171.541" x2="179.373" y2="301.188" gradientUnits="userSpaceOnUse">
<stop stop-color="#776DDF"/>
<stop offset="0.510417" stop-color="#6FECE3"/>
<stop offset="1" stop-color="#A0FAAC"/>
</linearGradient>
<linearGradient id="paint41_linear_734_6010" x1="280.821" y1="167.381" x2="174.694" y2="307.184" gradientUnits="userSpaceOnUse">
<stop stop-color="#776DDF"/>
<stop offset="0.510417" stop-color="#6FECE3"/>
<stop offset="1" stop-color="#A0FAAC"/>
</linearGradient>
<linearGradient id="paint42_linear_734_6010" x1="286.059" y1="162.855" x2="169.339" y2="313.221" gradientUnits="userSpaceOnUse">
<stop stop-color="#776DDF"/>
<stop offset="0.510417" stop-color="#6FECE3"/>
<stop offset="1" stop-color="#A0FAAC"/>
</linearGradient>
<linearGradient id="paint43_linear_734_6010" x1="291.532" y1="157.949" x2="163.314" y2="319.345" gradientUnits="userSpaceOnUse">
<stop stop-color="#776DDF"/>
<stop offset="0.510417" stop-color="#6FECE3"/>
<stop offset="1" stop-color="#A0FAAC"/>
</linearGradient>
<linearGradient id="paint44_linear_734_6010" x1="297.089" y1="152.597" x2="156.441" y2="325.422" gradientUnits="userSpaceOnUse">
<stop stop-color="#776DDF"/>
<stop offset="0.510417" stop-color="#6FECE3"/>
<stop offset="1" stop-color="#A0FAAC"/>
</linearGradient>
<linearGradient id="paint45_linear_734_6010" x1="302.834" y1="146.777" x2="148.674" y2="331.432" gradientUnits="userSpaceOnUse">
<stop stop-color="#776DDF"/>
<stop offset="0.510417" stop-color="#6FECE3"/>
<stop offset="1" stop-color="#A0FAAC"/>
</linearGradient>
<linearGradient id="paint46_linear_734_6010" x1="308.653" y1="140.438" x2="139.883" y2="337.247" gradientUnits="userSpaceOnUse">
<stop stop-color="#776DDF"/>
<stop offset="0.510417" stop-color="#6FECE3"/>
<stop offset="1" stop-color="#A0FAAC"/>
</linearGradient>
<linearGradient id="paint47_linear_734_6010" x1="314.614" y1="133.611" x2="130.116" y2="342.802" gradientUnits="userSpaceOnUse">
<stop stop-color="#776DDF"/>
<stop offset="0.510417" stop-color="#6FECE3"/>
<stop offset="1" stop-color="#A0FAAC"/>
</linearGradient>
<linearGradient id="paint48_linear_734_6010" x1="320.685" y1="126.143" x2="119.058" y2="347.946" gradientUnits="userSpaceOnUse">
<stop stop-color="#776DDF"/>
<stop offset="0.510417" stop-color="#6FECE3"/>
<stop offset="1" stop-color="#A0FAAC"/>
</linearGradient>
<linearGradient id="paint49_linear_734_6010" x1="326.817" y1="118.15" x2="106.902" y2="352.527" gradientUnits="userSpaceOnUse">
<stop stop-color="#776DDF"/>
<stop offset="0.510417" stop-color="#6FECE3"/>
<stop offset="1" stop-color="#A0FAAC"/>
</linearGradient>
<linearGradient id="paint50_linear_734_6010" x1="333.022" y1="109.501" x2="93.3953" y2="356.375" gradientUnits="userSpaceOnUse">
<stop stop-color="#776DDF"/>
<stop offset="0.510417" stop-color="#6FECE3"/>
<stop offset="1" stop-color="#A0FAAC"/>
</linearGradient>
</defs>
</svg>
