<svg width="98" height="70" viewBox="0 0 98 70" fill="none" xmlns="http://www.w3.org/2000/svg">
<path d="M35.0444 30.2006C31.4398 26.616 29.2084 21.6519 29.2084 16.1667C29.2084 10.6816 31.4398 5.71754 35.0444 2.13291C32.9691 1.11394 30.6347 0.541748 28.1667 0.541748C19.5373 0.541748 12.5417 7.5373 12.5417 16.1667C12.5417 24.7962 19.5373 31.7917 28.1667 31.7917C30.6347 31.7917 32.9691 31.2196 35.0444 30.2006Z" fill="url(#paint0_linear_409_1945)"/>
<path d="M33.3751 16.1667C33.3751 7.5373 40.3706 0.541748 49.0001 0.541748C57.6295 0.541748 64.6251 7.5373 64.6251 16.1667C64.6251 24.7962 57.6295 31.7917 49.0001 31.7917C40.3706 31.7917 33.3751 24.7962 33.3751 16.1667Z" fill="url(#paint1_linear_409_1945)"/>
<path d="M62.9558 2.13291C66.5603 5.71754 68.7917 10.6816 68.7917 16.1667C68.7917 21.6519 66.5603 26.616 62.9558 30.2006C65.0311 31.2196 67.3654 31.7917 69.8334 31.7917C78.4629 31.7917 85.4584 24.7962 85.4584 16.1667C85.4584 7.5373 78.4629 0.541748 69.8334 0.541748C67.3654 0.541748 65.0311 1.11394 62.9558 2.13291Z" fill="url(#paint2_linear_409_1945)"/>
<path d="M20.8751 53.6667C20.8751 45.0373 27.8706 38.0417 36.5001 38.0417H61.5001C70.1295 38.0417 77.1251 45.0373 77.1251 53.6667C77.1251 62.2962 70.1295 69.2917 61.5001 69.2917H36.5001C27.8706 69.2917 20.8751 62.2962 20.8751 53.6667Z" fill="url(#paint3_linear_409_1945)"/>
<path d="M0.041748 49.5001C0.041748 40.8706 7.0373 33.8751 15.6667 33.8751H36.5001C25.5694 33.8751 16.7084 42.7361 16.7084 53.6667C16.7084 57.937 18.0608 61.8915 20.3607 65.1251H15.6667C7.0373 65.1251 0.041748 58.1295 0.041748 49.5001Z" fill="url(#paint4_linear_409_1945)"/>
<path d="M81.2917 53.6667C81.2917 57.937 79.9393 61.8915 77.6394 65.1251H82.3334C90.9629 65.1251 97.9584 58.1295 97.9584 49.5001C97.9584 40.8706 90.9629 33.8751 82.3334 33.8751H61.5001C72.4307 33.8751 81.2917 42.7361 81.2917 53.6667Z" fill="url(#paint5_linear_409_1945)"/>
<defs>
<linearGradient id="paint0_linear_409_1945" x1="0.0417484" y1="13.7188" x2="89.7365" y2="68.9049" gradientUnits="userSpaceOnUse">
<stop stop-color="#776DDF"/>
<stop offset="0.510417" stop-color="#6FECE3"/>
<stop offset="1" stop-color="#A0FAAC"/>
</linearGradient>
<linearGradient id="paint1_linear_409_1945" x1="0.0417484" y1="13.7188" x2="89.7365" y2="68.9049" gradientUnits="userSpaceOnUse">
<stop stop-color="#776DDF"/>
<stop offset="0.510417" stop-color="#6FECE3"/>
<stop offset="1" stop-color="#A0FAAC"/>
</linearGradient>
<linearGradient id="paint2_linear_409_1945" x1="0.0417484" y1="13.7188" x2="89.7365" y2="68.9049" gradientUnits="userSpaceOnUse">
<stop stop-color="#776DDF"/>
<stop offset="0.510417" stop-color="#6FECE3"/>
<stop offset="1" stop-color="#A0FAAC"/>
</linearGradient>
<linearGradient id="paint3_linear_409_1945" x1="0.0417484" y1="13.7188" x2="89.7365" y2="68.9049" gradientUnits="userSpaceOnUse">
<stop stop-color="#776DDF"/>
<stop offset="0.510417" stop-color="#6FECE3"/>
<stop offset="1" stop-color="#A0FAAC"/>
</linearGradient>
<linearGradient id="paint4_linear_409_1945" x1="0.0417484" y1="13.7188" x2="89.7365" y2="68.9049" gradientUnits="userSpaceOnUse">
<stop stop-color="#776DDF"/>
<stop offset="0.510417" stop-color="#6FECE3"/>
<stop offset="1" stop-color="#A0FAAC"/>
</linearGradient>
<linearGradient id="paint5_linear_409_1945" x1="0.0417484" y1="13.7188" x2="89.7365" y2="68.9049" gradientUnits="userSpaceOnUse">
<stop stop-color="#776DDF"/>
<stop offset="0.510417" stop-color="#6FECE3"/>
<stop offset="1" stop-color="#A0FAAC"/>
</linearGradient>
</defs>
</svg>
