<svg width="100" height="100" viewBox="0 0 100 100" fill="none" xmlns="http://www.w3.org/2000/svg">
<path d="M46.0307 29.1393C46.308 28.9792 46.5899 28.8352 46.8751 28.7072V45.4997C40.096 42.506 39.4611 32.9322 46.0307 29.1393Z" fill="url(#paint0_linear_2182_11291)"/>
<path d="M53.1251 71.2933V54.4998C59.9051 57.4931 60.5404 67.0676 53.9705 70.8607C53.6929 71.021 53.4107 71.1651 53.1251 71.2933Z" fill="url(#paint1_linear_2182_11291)"/>
<path fill-rule="evenodd" clip-rule="evenodd" d="M5.2085 50C5.2085 25.2622 25.2624 5.20831 50.0002 5.20831C74.7379 5.20831 94.7918 25.2622 94.7918 50C94.7918 74.7377 74.7379 94.7917 50.0002 94.7917C25.2624 94.7917 5.2085 74.7377 5.2085 50ZM53.1251 20.8333C53.1251 19.1074 51.726 17.7083 50.0001 17.7083C48.2743 17.7083 46.8751 19.1074 46.8751 20.8333V22.117C45.5137 22.4586 44.1777 22.9922 42.9057 23.7266C31.5646 30.2744 33.0061 47.0788 45.2966 51.5995L46.8751 52.1802V71.7476C44.6465 71.119 42.6553 69.6541 41.4087 67.4948L39.8438 64.7844C38.9809 63.2897 37.0697 62.7776 35.575 63.6406C34.0804 64.5035 33.5682 66.4147 34.4312 67.9094L35.996 70.6198C38.4063 74.7944 42.4696 77.415 46.8751 78.1395V79.1666C46.8751 80.8925 48.2743 82.2916 50.0001 82.2916C51.726 82.2916 53.1251 80.8925 53.1251 79.1666V77.8832C54.4869 77.5417 55.8232 77.0079 57.0955 76.2734C68.4366 69.7256 66.9952 52.9212 54.7046 48.4005L53.1251 47.8196V28.2521C55.3541 28.8806 57.3457 30.3456 58.5925 32.5052L60.1574 35.2156C61.0203 36.7103 62.9315 37.2224 64.4262 36.3594C65.9209 35.4965 66.433 33.5853 65.57 32.0906L64.0052 29.3802C61.5948 25.2053 57.531 22.5846 53.1251 21.8604V20.8333Z" fill="url(#paint2_linear_2182_11291)"/>
<defs>
<linearGradient id="paint0_linear_2182_11291" x1="5.2085" y1="22.3785" x2="202.64" y2="201.459" gradientUnits="userSpaceOnUse">
<stop stop-color="#776DDF"/>
<stop offset="0.510417" stop-color="#6FECE3"/>
<stop offset="1" stop-color="#A0FAAC"/>
</linearGradient>
<linearGradient id="paint1_linear_2182_11291" x1="5.2085" y1="22.3785" x2="202.64" y2="201.459" gradientUnits="userSpaceOnUse">
<stop stop-color="#776DDF"/>
<stop offset="0.510417" stop-color="#6FECE3"/>
<stop offset="1" stop-color="#A0FAAC"/>
</linearGradient>
<linearGradient id="paint2_linear_2182_11291" x1="5.2085" y1="22.3785" x2="202.64" y2="201.459" gradientUnits="userSpaceOnUse">
<stop stop-color="#776DDF"/>
<stop offset="0.510417" stop-color="#6FECE3"/>
<stop offset="1" stop-color="#A0FAAC"/>
</linearGradient>
</defs>
</svg>
