<svg width="1799" height="1701" viewBox="0 0 1799 1701" fill="none" xmlns="http://www.w3.org/2000/svg">
<path d="M922.547 851.272L985.415 818.352L962.137 817.508L876.207 849.094L813.34 882.014L836.617 882.858L922.547 851.272Z" stroke="url(#paint0_linear_807_4726)" stroke-width="2" stroke-miterlimit="10"/>
<path d="M923.175 851.839L990.759 817.48L966.961 815.824L875.334 848.42L807.749 882.779L831.792 884.542L923.175 851.839Z" stroke="url(#paint1_linear_807_4726)" stroke-width="2" stroke-miterlimit="10"/>
<path d="M923.803 852.406L996.456 816.47L972.137 814.002L874.706 847.853L802.053 883.789L826.371 886.257L923.803 852.406Z" stroke="url(#paint2_linear_807_4726)" stroke-width="2" stroke-miterlimit="10"/>
<path d="M924.323 853.218L1002.75 815.429L977.558 812.288L874.185 847.042L796.003 884.938L820.949 887.972L924.323 853.218Z" stroke="url(#paint3_linear_807_4726)" stroke-width="2" stroke-miterlimit="10"/>
<path d="M924.737 854.274L1008.94 814.633L983.332 810.435L873.772 845.985L789.571 885.626L815.176 889.824L924.737 854.274Z" stroke="url(#paint4_linear_807_4726)" stroke-width="2" stroke-miterlimit="10"/>
<path d="M925.394 855.439L1015.48 813.7L989.595 808.798L873.358 844.929L783.031 886.561L809.157 891.571L925.394 855.439Z" stroke="url(#paint5_linear_807_4726)" stroke-width="2" stroke-miterlimit="10"/>
<path d="M925.808 856.494L1022.4 813.225L995.966 806.913L872.945 843.871L776.11 887.033L802.541 893.345L925.808 856.494Z" stroke="url(#paint6_linear_807_4726)" stroke-width="2" stroke-miterlimit="10"/>
<path d="M925.869 857.69L1029.67 812.614L1002.93 805.001L872.638 842.57L769.08 887.754L795.818 895.367L925.869 857.69Z" stroke="url(#paint7_linear_807_4726)" stroke-width="2" stroke-miterlimit="10"/>
<path d="M926.175 858.992L1036.95 812.002L1010.15 803.194L872.332 841.269L761.561 888.258L788.605 897.173L926.175 858.992Z" stroke="url(#paint8_linear_807_4726)" stroke-width="2" stroke-miterlimit="10"/>
<path d="M926.374 860.538L1044.71 811.604L1017.71 801.25L872.378 839.829L753.797 888.656L780.795 899.01L926.374 860.538Z" stroke="url(#paint9_linear_807_4726)" stroke-width="2" stroke-miterlimit="10"/>
<path d="M926.222 862.222L1052.61 811.559L1025.77 799.52L872.287 838.037L745.895 888.701L772.74 900.74L926.222 862.222Z" stroke="url(#paint10_linear_807_4726)" stroke-width="2" stroke-miterlimit="10"/>
<path d="M926.067 863.908L1060.87 811.376L1034.18 797.652L872.439 836.353L737.64 888.884L764.331 902.608L926.067 863.908Z" stroke="url(#paint11_linear_807_4726)" stroke-width="2" stroke-miterlimit="10"/>
<path d="M925.7 866.082L1069.5 811.652L1043.18 795.754L872.807 834.178L729.003 888.608L755.572 904.613L925.7 866.082Z" stroke="url(#paint12_linear_807_4726)" stroke-width="2" stroke-miterlimit="10"/>
<path d="M925.087 868.15L1078.39 812.036L1052.43 793.963L873.42 832.111L720.366 888.331L746.077 906.297L925.087 868.15Z" stroke="url(#paint13_linear_807_4726)" stroke-width="2" stroke-miterlimit="10"/>
<path d="M924.367 870.461L1087.16 812.664L1062.28 792.141L874.14 829.798L711.239 887.84L736.23 908.118L924.367 870.461Z" stroke="url(#paint14_linear_807_4726)" stroke-width="2" stroke-miterlimit="10"/>
<path d="M923.433 873.264L1096.67 813.615L1072.61 790.534L875.32 827.103L702.081 886.752L726.138 909.833L923.433 873.264Z" stroke="url(#paint15_linear_807_4726)" stroke-width="2" stroke-miterlimit="10"/>
<path d="M922.254 875.959L1106.07 814.81L1083.2 789.034L876.5 824.408L692.434 885.449L715.311 911.225L922.254 875.959Z" stroke="url(#paint16_linear_807_4726)" stroke-width="2" stroke-miterlimit="10"/>
<path d="M920.614 879.037L1115.72 816.112L1094.38 787.504L877.893 821.222L682.786 884.147L704.131 912.756L920.614 879.037Z" stroke="url(#paint17_linear_807_4726)" stroke-width="2" stroke-miterlimit="10"/>
<path d="M918.868 882.36L1125.65 818.119L1106.05 786.188L879.884 818.007L672.862 882.14L692.354 914.317L918.868 882.36Z" stroke="url(#paint18_linear_807_4726)" stroke-width="2" stroke-miterlimit="10"/>
<path d="M916.525 885.714L1135.71 820.479L1118.31 784.841L881.983 814.546L663.046 879.888L680.195 915.418L916.525 885.714Z" stroke="url(#paint19_linear_807_4726)" stroke-width="2" stroke-miterlimit="10"/>
<path d="M913.861 889.802L1145.8 823.435L1130.96 783.954L884.648 810.457L652.955 876.932L667.546 916.306L913.861 889.802Z" stroke="url(#paint20_linear_807_4726)" stroke-width="2" stroke-miterlimit="10"/>
<path d="M910.951 893.783L1156.03 826.744L1144.21 783.036L887.558 806.475L642.725 873.622L654.544 917.33L910.951 893.783Z" stroke="url(#paint21_linear_807_4726)" stroke-width="2" stroke-miterlimit="10"/>
<path d="M907.474 898.393L1166.04 830.543L1157.95 782.333L891.034 801.867L632.465 869.717L640.807 918.034L907.474 898.393Z" stroke="url(#paint22_linear_807_4726)" stroke-width="2" stroke-miterlimit="10"/>
<path d="M903.538 903.385L1176.23 835.291L1172.07 782.09L894.971 796.875L622.282 864.969L626.688 918.278L903.538 903.385Z" stroke="url(#paint23_linear_807_4726)" stroke-width="2" stroke-miterlimit="10"/>
<path d="M899.248 908.515L1186.44 840.637L1186.67 782.06L899.503 791.852L612.312 859.731L612.077 918.307L899.248 908.515Z" stroke="url(#paint24_linear_807_4726)" stroke-width="2" stroke-miterlimit="10"/>
<path d="M894.149 914.165L1196.44 846.472L1201.67 782.49L904.604 786.201L602.067 853.788L596.84 917.77L894.149 914.165Z" stroke="url(#paint25_linear_807_4726)" stroke-width="2" stroke-miterlimit="10"/>
<path d="M888.238 920.336L1206.26 853.394L1217.15 783.134L910.271 779.923L592.497 846.972L581.358 917.125L888.238 920.336Z" stroke="url(#paint26_linear_807_4726)" stroke-width="2" stroke-miterlimit="10"/>
<path d="M881.621 926.783L1215.75 861.053L1233.26 784.346L916.888 773.476L583.003 839.314L565.248 915.914L881.621 926.783Z" stroke="url(#paint27_linear_807_4726)" stroke-width="2" stroke-miterlimit="10"/>
<path d="M874.438 933.857L1224.82 869.69L1249.51 785.909L924.07 766.402L573.693 830.569L548.999 914.35L874.438 933.857Z" stroke="url(#paint28_linear_807_4726)" stroke-width="2" stroke-miterlimit="10"/>
<path d="M866.444 941.453L1233.45 879.308L1266.28 788.284L932.31 758.914L565.057 820.951L532.231 911.975L866.444 941.453Z" stroke="url(#paint29_linear_807_4726)" stroke-width="2" stroke-miterlimit="10"/>
<path d="M857.392 949.461L1241.44 890.397L1283.43 791.119L941.361 750.905L557.063 809.863L515.078 909.141L857.392 949.461Z" stroke="url(#paint30_linear_807_4726)" stroke-width="2" stroke-miterlimit="10"/>
<path d="M847.284 957.883L1249.01 902.465L1300.86 794.657L951.224 742.376L549.744 797.901L497.652 905.601L847.284 957.883Z" stroke="url(#paint31_linear_807_4726)" stroke-width="2" stroke-miterlimit="10"/>
<path d="M836.256 967.071L1255.33 916.034L1318.45 799.146L962.25 733.188L543.174 784.226L480.3 901.22L836.256 967.071Z" stroke="url(#paint32_linear_807_4726)" stroke-width="2" stroke-miterlimit="10"/>
<path d="M824.066 976.917L1261.12 930.828L1336.08 804.232L974.442 723.343L537.633 769.539L462.429 896.027L824.066 976.917Z" stroke="url(#paint33_linear_807_4726)" stroke-width="2" stroke-miterlimit="10"/>
<path d="M810.466 987.314L1265.56 947.367L1354.12 810.375L988.041 712.946L533.193 752.999L444.39 889.885L810.466 987.314Z" stroke="url(#paint34_linear_807_4726)" stroke-width="2" stroke-miterlimit="10"/>
<path d="M795.702 998.369L1268.65 965.652L1372.08 817.359L1002.8 701.89L529.856 734.607L426.427 882.9L795.702 998.369Z" stroke="url(#paint35_linear_807_4726)" stroke-width="2" stroke-miterlimit="10"/>
<path d="M779.422 1010.22L1270.4 985.683L1390.1 825.538L1019.09 690.038L528.357 714.683L408.403 874.721L779.422 1010.22Z" stroke="url(#paint36_linear_807_4726)" stroke-width="2" stroke-miterlimit="10"/>
<path d="M761.627 1022.87L1270.33 1007.84L1407.84 835.05L1036.88 677.39L528.421 692.523L390.671 865.209L761.627 1022.87Z" stroke="url(#paint37_linear_807_4726)" stroke-width="2" stroke-miterlimit="10"/>
<path d="M742.313 1036.31L1268.22 1032.02L1425.28 845.894L1056.44 664.054L530.29 668.236L373.228 854.366L742.313 1036.31Z" stroke="url(#paint38_linear_807_4726)" stroke-width="2" stroke-miterlimit="10"/>
<path d="M720.888 1050.58L1264.19 1058.58L1442.43 858.07L1077.62 649.675L534.565 641.789L356.077 842.189L720.888 1050.58Z" stroke="url(#paint39_linear_807_4726)" stroke-width="2" stroke-miterlimit="10"/>
<path d="M697.702 1065.54L1257.4 1087.43L1459.08 872.069L1100.81 634.715L541.108 612.83L339.678 828.298L697.702 1065.54Z" stroke="url(#paint40_linear_807_4726)" stroke-width="2" stroke-miterlimit="10"/>
<path d="M672.539 1081.68L1248.13 1119.28L1474.97 887.783L1126.21 618.684L550.62 581.085L323.783 812.584L672.539 1081.68Z" stroke="url(#paint41_linear_807_4726)" stroke-width="2" stroke-miterlimit="10"/>
<path d="M645.018 1098.54L1235.76 1153.57L1489.87 905.104L1153.49 601.718L562.997 546.797L308.639 795.156L645.018 1098.54Z" stroke="url(#paint42_linear_807_4726)" stroke-width="2" stroke-miterlimit="10"/>
<path d="M615.277 1116.47L1219.95 1191.03L1504.05 924.738L1183.48 583.895L578.804 509.34L294.704 775.629L615.277 1116.47Z" stroke="url(#paint43_linear_807_4726)" stroke-width="2" stroke-miterlimit="10"/>
<path d="M582.825 1135.26L1200.36 1231.79L1516.67 946.607L1215.68 564.999L598.395 468.575L281.843 753.651L582.825 1135.26Z" stroke="url(#paint44_linear_807_4726)" stroke-width="2" stroke-miterlimit="10"/>
<path d="M547.799 1155.26L1176.39 1275.89L1527.97 970.82L1250.71 545.003L622.12 424.366L270.788 729.547L547.799 1155.26Z" stroke="url(#paint45_linear_807_4726)" stroke-width="2" stroke-miterlimit="10"/>
<path d="M509.957 1176.36L1148.07 1323.93L1537.24 997.651L1288.55 523.902L650.44 376.327L261.265 702.607L509.957 1176.36Z" stroke="url(#paint46_linear_807_4726)" stroke-width="2" stroke-miterlimit="10"/>
<path d="M469.05 1198.45L1114.56 1375.83L1544.74 1027.21L1329.46 501.808L684.196 324.538L253.763 673.051L469.05 1198.45Z" stroke="url(#paint47_linear_807_4726)" stroke-width="2" stroke-miterlimit="10"/>
<path d="M424.867 1222.03L1075.5 1431.72L1549.66 1060.01L1373.64 478.228L723.007 268.538L248.85 640.248L424.867 1222.03Z" stroke="url(#paint48_linear_807_4726)" stroke-width="2" stroke-miterlimit="10"/>
<path d="M377.375 1246.5L1030.33 1492.24L1552.09 1095.82L1421.13 453.76L768.418 208.127L246.417 604.443L377.375 1246.5Z" stroke="url(#paint49_linear_807_4726)" stroke-width="2" stroke-miterlimit="10"/>
<path d="M326.118 1272.24L978.108 1557.55L1551.37 1135.5L1472.39 428.021L820.401 142.71L247.141 564.764L326.118 1272.24Z" stroke="url(#paint50_linear_807_4726)" stroke-width="2" stroke-miterlimit="10"/>
<defs>
<linearGradient id="paint0_linear_807_4726" x1="962.216" y1="808.2" x2="855.033" y2="910.863" gradientUnits="userSpaceOnUse">
<stop stop-color="#776DDF"/>
<stop offset="0.510417" stop-color="#6FECE3"/>
<stop offset="1" stop-color="#A0FAAC"/>
</linearGradient>
<linearGradient id="paint1_linear_807_4726" x1="965.916" y1="806.609" x2="854.288" y2="915.296" gradientUnits="userSpaceOnUse">
<stop stop-color="#776DDF"/>
<stop offset="0.510417" stop-color="#6FECE3"/>
<stop offset="1" stop-color="#A0FAAC"/>
</linearGradient>
<linearGradient id="paint2_linear_807_4726" x1="969.923" y1="804.859" x2="853.353" y2="919.844" gradientUnits="userSpaceOnUse">
<stop stop-color="#776DDF"/>
<stop offset="0.510417" stop-color="#6FECE3"/>
<stop offset="1" stop-color="#A0FAAC"/>
</linearGradient>
<linearGradient id="paint3_linear_807_4726" x1="974.385" y1="803.017" x2="852.461" y2="924.785" gradientUnits="userSpaceOnUse">
<stop stop-color="#776DDF"/>
<stop offset="0.510417" stop-color="#6FECE3"/>
<stop offset="1" stop-color="#A0FAAC"/>
</linearGradient>
<linearGradient id="paint4_linear_807_4726" x1="978.647" y1="801.378" x2="851.988" y2="929.835" gradientUnits="userSpaceOnUse">
<stop stop-color="#776DDF"/>
<stop offset="0.510417" stop-color="#6FECE3"/>
<stop offset="1" stop-color="#A0FAAC"/>
</linearGradient>
<linearGradient id="paint5_linear_807_4726" x1="983.213" y1="799.582" x2="851.32" y2="935.012" gradientUnits="userSpaceOnUse">
<stop stop-color="#776DDF"/>
<stop offset="0.510417" stop-color="#6FECE3"/>
<stop offset="1" stop-color="#A0FAAC"/>
</linearGradient>
<linearGradient id="paint6_linear_807_4726" x1="987.975" y1="798.161" x2="851.544" y2="940.6" gradientUnits="userSpaceOnUse">
<stop stop-color="#776DDF"/>
<stop offset="0.510417" stop-color="#6FECE3"/>
<stop offset="1" stop-color="#A0FAAC"/>
</linearGradient>
<linearGradient id="paint7_linear_807_4726" x1="993.042" y1="796.585" x2="851.571" y2="946.308" gradientUnits="userSpaceOnUse">
<stop stop-color="#776DDF"/>
<stop offset="0.510417" stop-color="#6FECE3"/>
<stop offset="1" stop-color="#A0FAAC"/>
</linearGradient>
<linearGradient id="paint8_linear_807_4726" x1="998.015" y1="794.966" x2="851.578" y2="952.073" gradientUnits="userSpaceOnUse">
<stop stop-color="#776DDF"/>
<stop offset="0.510417" stop-color="#6FECE3"/>
<stop offset="1" stop-color="#A0FAAC"/>
</linearGradient>
<linearGradient id="paint9_linear_807_4726" x1="1003.34" y1="793.499" x2="852.043" y2="958.153" gradientUnits="userSpaceOnUse">
<stop stop-color="#776DDF"/>
<stop offset="0.510417" stop-color="#6FECE3"/>
<stop offset="1" stop-color="#A0FAAC"/>
</linearGradient>
<linearGradient id="paint10_linear_807_4726" x1="1008.81" y1="792.099" x2="852.728" y2="964.373" gradientUnits="userSpaceOnUse">
<stop stop-color="#776DDF"/>
<stop offset="0.510417" stop-color="#6FECE3"/>
<stop offset="1" stop-color="#A0FAAC"/>
</linearGradient>
<linearGradient id="paint11_linear_807_4726" x1="1015.08" y1="789.296" x2="851.097" y2="971.07" gradientUnits="userSpaceOnUse">
<stop stop-color="#776DDF"/>
<stop offset="0.510417" stop-color="#6FECE3"/>
<stop offset="1" stop-color="#A0FAAC"/>
</linearGradient>
<linearGradient id="paint12_linear_807_4726" x1="1021.76" y1="786.378" x2="849.5" y2="978.216" gradientUnits="userSpaceOnUse">
<stop stop-color="#776DDF"/>
<stop offset="0.510417" stop-color="#6FECE3"/>
<stop offset="1" stop-color="#A0FAAC"/>
</linearGradient>
<linearGradient id="paint13_linear_807_4726" x1="1028.63" y1="783.549" x2="848.138" y2="985.508" gradientUnits="userSpaceOnUse">
<stop stop-color="#776DDF"/>
<stop offset="0.510417" stop-color="#6FECE3"/>
<stop offset="1" stop-color="#A0FAAC"/>
</linearGradient>
<linearGradient id="paint14_linear_807_4726" x1="1035.52" y1="780.432" x2="846.335" y2="992.941" gradientUnits="userSpaceOnUse">
<stop stop-color="#776DDF"/>
<stop offset="0.510417" stop-color="#6FECE3"/>
<stop offset="1" stop-color="#A0FAAC"/>
</linearGradient>
<linearGradient id="paint15_linear_807_4726" x1="1042.96" y1="777.556" x2="845.228" y2="1000.86" gradientUnits="userSpaceOnUse">
<stop stop-color="#776DDF"/>
<stop offset="0.510417" stop-color="#6FECE3"/>
<stop offset="1" stop-color="#A0FAAC"/>
</linearGradient>
<linearGradient id="paint16_linear_807_4726" x1="1050.3" y1="774.637" x2="844.1" y2="1008.85" gradientUnits="userSpaceOnUse">
<stop stop-color="#776DDF"/>
<stop offset="0.510417" stop-color="#6FECE3"/>
<stop offset="1" stop-color="#A0FAAC"/>
</linearGradient>
<linearGradient id="paint17_linear_807_4726" x1="1057.94" y1="771.561" x2="842.784" y2="1017.05" gradientUnits="userSpaceOnUse">
<stop stop-color="#776DDF"/>
<stop offset="0.510417" stop-color="#6FECE3"/>
<stop offset="1" stop-color="#A0FAAC"/>
</linearGradient>
<linearGradient id="paint18_linear_807_4726" x1="1065.89" y1="768.617" x2="841.653" y2="1025.77" gradientUnits="userSpaceOnUse">
<stop stop-color="#776DDF"/>
<stop offset="0.510417" stop-color="#6FECE3"/>
<stop offset="1" stop-color="#A0FAAC"/>
</linearGradient>
<linearGradient id="paint19_linear_807_4726" x1="1074.15" y1="765.515" x2="840.861" y2="1034.38" gradientUnits="userSpaceOnUse">
<stop stop-color="#776DDF"/>
<stop offset="0.510417" stop-color="#6FECE3"/>
<stop offset="1" stop-color="#A0FAAC"/>
</linearGradient>
<linearGradient id="paint20_linear_807_4726" x1="1082.4" y1="762.703" x2="840.432" y2="1043.28" gradientUnits="userSpaceOnUse">
<stop stop-color="#776DDF"/>
<stop offset="0.510417" stop-color="#6FECE3"/>
<stop offset="1" stop-color="#A0FAAC"/>
</linearGradient>
<linearGradient id="paint21_linear_807_4726" x1="1090.91" y1="759.712" x2="839.806" y2="1052.41" gradientUnits="userSpaceOnUse">
<stop stop-color="#776DDF"/>
<stop offset="0.510417" stop-color="#6FECE3"/>
<stop offset="1" stop-color="#A0FAAC"/>
</linearGradient>
<linearGradient id="paint22_linear_807_4726" x1="1099.37" y1="756.702" x2="839.163" y2="1061.57" gradientUnits="userSpaceOnUse">
<stop stop-color="#776DDF"/>
<stop offset="0.510417" stop-color="#6FECE3"/>
<stop offset="1" stop-color="#A0FAAC"/>
</linearGradient>
<linearGradient id="paint23_linear_807_4726" x1="1108.08" y1="754.088" x2="839.383" y2="1070.93" gradientUnits="userSpaceOnUse">
<stop stop-color="#776DDF"/>
<stop offset="0.510417" stop-color="#6FECE3"/>
<stop offset="1" stop-color="#A0FAAC"/>
</linearGradient>
<linearGradient id="paint24_linear_807_4726" x1="1116.98" y1="751.562" x2="839.827" y2="1080.41" gradientUnits="userSpaceOnUse">
<stop stop-color="#776DDF"/>
<stop offset="0.510417" stop-color="#6FECE3"/>
<stop offset="1" stop-color="#A0FAAC"/>
</linearGradient>
<linearGradient id="paint25_linear_807_4726" x1="1125.68" y1="749.238" x2="840.648" y2="1089.82" gradientUnits="userSpaceOnUse">
<stop stop-color="#776DDF"/>
<stop offset="0.510417" stop-color="#6FECE3"/>
<stop offset="1" stop-color="#A0FAAC"/>
</linearGradient>
<linearGradient id="paint26_linear_807_4726" x1="1134.63" y1="747.022" x2="841.705" y2="1099.3" gradientUnits="userSpaceOnUse">
<stop stop-color="#776DDF"/>
<stop offset="0.510417" stop-color="#6FECE3"/>
<stop offset="1" stop-color="#A0FAAC"/>
</linearGradient>
<linearGradient id="paint27_linear_807_4726" x1="1143.42" y1="745.032" x2="843.145" y2="1108.68" gradientUnits="userSpaceOnUse">
<stop stop-color="#776DDF"/>
<stop offset="0.510417" stop-color="#6FECE3"/>
<stop offset="1" stop-color="#A0FAAC"/>
</linearGradient>
<linearGradient id="paint28_linear_807_4726" x1="1152.06" y1="743.265" x2="844.964" y2="1117.92" gradientUnits="userSpaceOnUse">
<stop stop-color="#776DDF"/>
<stop offset="0.510417" stop-color="#6FECE3"/>
<stop offset="1" stop-color="#A0FAAC"/>
</linearGradient>
<linearGradient id="paint29_linear_807_4726" x1="1160.53" y1="742.009" x2="847.591" y2="1126.87" gradientUnits="userSpaceOnUse">
<stop stop-color="#776DDF"/>
<stop offset="0.510417" stop-color="#6FECE3"/>
<stop offset="1" stop-color="#A0FAAC"/>
</linearGradient>
<linearGradient id="paint30_linear_807_4726" x1="1168.89" y1="740.998" x2="850.601" y2="1135.64" gradientUnits="userSpaceOnUse">
<stop stop-color="#776DDF"/>
<stop offset="0.510417" stop-color="#6FECE3"/>
<stop offset="1" stop-color="#A0FAAC"/>
</linearGradient>
<linearGradient id="paint31_linear_807_4726" x1="1179.46" y1="741.535" x2="857.797" y2="1146.49" gradientUnits="userSpaceOnUse">
<stop stop-color="#776DDF"/>
<stop offset="0.510417" stop-color="#6FECE3"/>
<stop offset="1" stop-color="#A0FAAC"/>
</linearGradient>
<linearGradient id="paint32_linear_807_4726" x1="1190.81" y1="743.29" x2="867.584" y2="1157.69" gradientUnits="userSpaceOnUse">
<stop stop-color="#776DDF"/>
<stop offset="0.510417" stop-color="#6FECE3"/>
<stop offset="1" stop-color="#A0FAAC"/>
</linearGradient>
<linearGradient id="paint33_linear_807_4726" x1="1202" y1="745.561" x2="878.197" y2="1168.47" gradientUnits="userSpaceOnUse">
<stop stop-color="#776DDF"/>
<stop offset="0.510417" stop-color="#6FECE3"/>
<stop offset="1" stop-color="#A0FAAC"/>
</linearGradient>
<linearGradient id="paint34_linear_807_4726" x1="1213.37" y1="748.785" x2="890.454" y2="1178.82" gradientUnits="userSpaceOnUse">
<stop stop-color="#776DDF"/>
<stop offset="0.510417" stop-color="#6FECE3"/>
<stop offset="1" stop-color="#A0FAAC"/>
</linearGradient>
<linearGradient id="paint35_linear_807_4726" x1="1224.57" y1="752.81" x2="903.875" y2="1188.43" gradientUnits="userSpaceOnUse">
<stop stop-color="#776DDF"/>
<stop offset="0.510417" stop-color="#6FECE3"/>
<stop offset="1" stop-color="#A0FAAC"/>
</linearGradient>
<linearGradient id="paint36_linear_807_4726" x1="1235.65" y1="757.948" x2="918.987" y2="1197.16" gradientUnits="userSpaceOnUse">
<stop stop-color="#776DDF"/>
<stop offset="0.510417" stop-color="#6FECE3"/>
<stop offset="1" stop-color="#A0FAAC"/>
</linearGradient>
<linearGradient id="paint37_linear_807_4726" x1="1246.34" y1="764.377" x2="935.883" y2="1204.6" gradientUnits="userSpaceOnUse">
<stop stop-color="#776DDF"/>
<stop offset="0.510417" stop-color="#6FECE3"/>
<stop offset="1" stop-color="#A0FAAC"/>
</linearGradient>
<linearGradient id="paint38_linear_807_4726" x1="1264.15" y1="754.947" x2="929.056" y2="1224.79" gradientUnits="userSpaceOnUse">
<stop stop-color="#776DDF"/>
<stop offset="0.510417" stop-color="#6FECE3"/>
<stop offset="1" stop-color="#A0FAAC"/>
</linearGradient>
<linearGradient id="paint39_linear_807_4726" x1="1284.46" y1="740.191" x2="914.135" y2="1249.03" gradientUnits="userSpaceOnUse">
<stop stop-color="#776DDF"/>
<stop offset="0.510417" stop-color="#6FECE3"/>
<stop offset="1" stop-color="#A0FAAC"/>
</linearGradient>
<linearGradient id="paint40_linear_807_4726" x1="1305.52" y1="724.297" x2="897.288" y2="1273.81" gradientUnits="userSpaceOnUse">
<stop stop-color="#776DDF"/>
<stop offset="0.510417" stop-color="#6FECE3"/>
<stop offset="1" stop-color="#A0FAAC"/>
</linearGradient>
<linearGradient id="paint41_linear_807_4726" x1="1327.27" y1="706.668" x2="877.455" y2="1299.22" gradientUnits="userSpaceOnUse">
<stop stop-color="#776DDF"/>
<stop offset="0.510417" stop-color="#6FECE3"/>
<stop offset="1" stop-color="#A0FAAC"/>
</linearGradient>
<linearGradient id="paint42_linear_807_4726" x1="1349.48" y1="687.482" x2="854.76" y2="1324.81" gradientUnits="userSpaceOnUse">
<stop stop-color="#776DDF"/>
<stop offset="0.510417" stop-color="#6FECE3"/>
<stop offset="1" stop-color="#A0FAAC"/>
</linearGradient>
<linearGradient id="paint43_linear_807_4726" x1="1372.67" y1="666.688" x2="829.224" y2="1350.77" gradientUnits="userSpaceOnUse">
<stop stop-color="#776DDF"/>
<stop offset="0.510417" stop-color="#6FECE3"/>
<stop offset="1" stop-color="#A0FAAC"/>
</linearGradient>
<linearGradient id="paint44_linear_807_4726" x1="1396.23" y1="644.005" x2="800.092" y2="1376.53" gradientUnits="userSpaceOnUse">
<stop stop-color="#776DDF"/>
<stop offset="0.510417" stop-color="#6FECE3"/>
<stop offset="1" stop-color="#A0FAAC"/>
</linearGradient>
<linearGradient id="paint45_linear_807_4726" x1="1420.58" y1="619.338" x2="767.17" y2="1402" gradientUnits="userSpaceOnUse">
<stop stop-color="#776DDF"/>
<stop offset="0.510417" stop-color="#6FECE3"/>
<stop offset="1" stop-color="#A0FAAC"/>
</linearGradient>
<linearGradient id="paint46_linear_807_4726" x1="1445.24" y1="592.47" x2="729.908" y2="1426.64" gradientUnits="userSpaceOnUse">
<stop stop-color="#776DDF"/>
<stop offset="0.510417" stop-color="#6FECE3"/>
<stop offset="1" stop-color="#A0FAAC"/>
</linearGradient>
<linearGradient id="paint47_linear_807_4726" x1="1470.51" y1="563.532" x2="688.512" y2="1450.19" gradientUnits="userSpaceOnUse">
<stop stop-color="#776DDF"/>
<stop offset="0.510417" stop-color="#6FECE3"/>
<stop offset="1" stop-color="#A0FAAC"/>
</linearGradient>
<linearGradient id="paint48_linear_807_4726" x1="1496.24" y1="531.878" x2="641.644" y2="1471.99" gradientUnits="userSpaceOnUse">
<stop stop-color="#776DDF"/>
<stop offset="0.510417" stop-color="#6FECE3"/>
<stop offset="1" stop-color="#A0FAAC"/>
</linearGradient>
<linearGradient id="paint49_linear_807_4726" x1="1522.23" y1="497.999" x2="590.119" y2="1491.41" gradientUnits="userSpaceOnUse">
<stop stop-color="#776DDF"/>
<stop offset="0.510417" stop-color="#6FECE3"/>
<stop offset="1" stop-color="#A0FAAC"/>
</linearGradient>
<linearGradient id="paint50_linear_807_4726" x1="1548.53" y1="461.341" x2="532.872" y2="1507.72" gradientUnits="userSpaceOnUse">
<stop stop-color="#776DDF"/>
<stop offset="0.510417" stop-color="#6FECE3"/>
<stop offset="1" stop-color="#A0FAAC"/>
</linearGradient>
</defs>
</svg>
