<svg width="40" height="40" viewBox="0 0 40 40" fill="none" xmlns="http://www.w3.org/2000/svg">
    <path fill-rule="evenodd" clip-rule="evenodd"
        d="M26.071 9.57191L19 16.643L11.9289 9.57191C11.2772 8.9202 10.2224 8.92137 9.57189 9.57191C8.92135 10.2224 8.92017 11.2772 9.57189 11.9289L16.643 19L9.57189 26.0711C8.92135 26.7216 8.92017 27.7764 9.57189 28.4281C10.2236 29.0798 11.2784 29.0786 11.9289 28.4281L19 21.357L26.071 28.4281C26.7228 29.0798 27.7775 29.0786 28.4281 28.4281C29.0786 27.7776 29.0798 26.7228 28.4281 26.0711L21.357 19L28.4281 11.9289C29.0786 11.2784 29.0798 10.2236 28.4281 9.57191C27.7764 8.9202 26.7216 8.92137 26.071 9.57191Z"
        fill="url(#paint0_linear_3365_1886)" />
    <mask id="mask0_3365_1886" style="mask-type:luminance" maskUnits="userSpaceOnUse" x="9" y="9" width="20"
        height="20">
        <path fill-rule="evenodd" clip-rule="evenodd"
            d="M26.071 9.57191L19 16.643L11.9289 9.57191C11.2772 8.9202 10.2224 8.92137 9.57189 9.57191C8.92135 10.2224 8.92017 11.2772 9.57189 11.9289L16.643 19L9.57189 26.0711C8.92135 26.7216 8.92017 27.7764 9.57189 28.4281C10.2236 29.0798 11.2784 29.0786 11.9289 28.4281L19 21.357L26.071 28.4281C26.7228 29.0798 27.7775 29.0786 28.4281 28.4281C29.0786 27.7776 29.0798 26.7228 28.4281 26.0711L21.357 19L28.4281 11.9289C29.0786 11.2784 29.0798 10.2236 28.4281 9.57191C27.7764 8.9202 26.7216 8.92137 26.071 9.57191Z"
            fill="white" />
    </mask>
    <g mask="url(#mask0_3365_1886)">
    </g>
    <defs>
        <linearGradient id="paint0_linear_3365_1886" x1="3.7579" y1="22.6141" x2="83.009" y2="18.7516"
            gradientUnits="userSpaceOnUse">
            <stop stop-color="#776DDF" />
            <stop offset="0.510417" stop-color="#6FECE3" />
            <stop offset="1" stop-color="#A0FAAC" />
        </linearGradient>
    </defs>
</svg>